<svg width="16" height="19" viewBox="0 0 16 19" fill="none" xmlns="http://www.w3.org/2000/svg">
<g id="red logo 1" clip-path="url(#clip0_2_2430)">
<path id="Vector 1" d="M1.93834 5.18339L7.81589 1.14258L8.82609 3.34666L12.4077 5.18339L13.9689 8.03033L14.1526 11.3365L12.9587 14.3671L7.54038 16.663L6.16283 16.2038L3.13221 14.3671L1.29548 10.5099L1.93834 5.18339Z" fill="#D9D9D9"/>
<g id="Layer 1">
<path id="Vector" d="M12.393 12.4815C11.8175 13.3417 11.0148 14.0094 10.0714 14.4123C9.74614 14.5505 9.41046 14.6562 9.06749 14.7263C8.72452 14.7964 8.3732 14.8309 8.01772 14.8309H4.45977V12.3999H5.54811V13.73H8.01668C8.85587 13.73 9.66483 13.4799 10.3581 13.0079C11.0336 12.5453 11.559 11.9017 11.8749 11.1462C12.0927 10.626 12.2043 10.0703 12.2043 9.49895C12.2043 8.65128 11.9572 7.83291 11.4892 7.13384C11.0325 6.45047 10.3956 5.91988 9.64606 5.59965C9.13004 5.37884 8.5817 5.26791 8.01668 5.26791H5.54811V6.61581H4.45977V4.16802H8.01668C9.07479 4.16802 10.0943 4.48407 10.9669 5.07954C11.8186 5.6593 12.4795 6.47244 12.8777 7.42477C13.1529 8.08302 13.2926 8.78 13.2926 9.5C13.2926 10.5685 12.9809 11.5993 12.3919 12.4815H12.393ZM3.01803 10.6365H7.41517L8.589 8.36244H3.01907V7.5064H9.98695L7.93015 11.4926H3.01907V10.6365H3.01803ZM2.03602 9.07093H6.21112L6.2132 9.92698H2.03706V9.07093H2.03602ZM8 0.5L0.285713 5V14L8 18.5L15.7143 14V5L8 0.5Z" fill="#ED1C29"/>
</g>
</g>
<defs>
<clipPath id="clip0_2_2430">
<rect width="15.4286" height="18" fill="white" transform="translate(0.285713 0.5)"/>
</clipPath>
</defs>
</svg>
